<?xml version="1.0" encoding="UTF-8" standalone="no"?>
<svg
   xmlns:slic3r="http://slic3r.org/namespaces/slic3r"
   xmlns:dc="http://purl.org/dc/elements/1.1/"
   xmlns:cc="http://creativecommons.org/ns#"
   xmlns:rdf="http://www.w3.org/1999/02/22-rdf-syntax-ns#"
   xmlns:svg="http://www.w3.org/2000/svg"
   xmlns="http://www.w3.org/2000/svg"
   id="svg5125"
   version="1.1"
   height="29.497213"
   width="29.354013">
  <metadata
     id="metadata5131">
    <rdf:RDF>
      <cc:Work
         rdf:about="">
        <dc:format>image/svg+xml</dc:format>
        <dc:type
           rdf:resource="http://purl.org/dc/dcmitype/StillImage" />
        <dc:title></dc:title>
      </cc:Work>
    </rdf:RDF>
  </metadata>
  <defs
     id="defs5129" />
  <!-- 
  Generated using Slic3r 1.3.0
  http://slic3r.org/
   -->
  <g
     transform="translate(2.4997639,-1.9998111)"
     slic3r:z="1.75e-007"
     id="layer0">
    <polygon
       id="polygon5122"
       style="fill:#ff0000"
       points="13.743865,4.2991 13.794539,4.30487 14.359584,4.369197 14.409913,4.37744 14.971128,4.469371 15.527127,4.588759 15.576989,4.599466 16.126453,4.745956 16.175729,4.759093 16.2243,4.774628 16.765909,4.947863 16.813657,4.965764 17.346086,5.165384 17.868017,5.391031 17.914823,5.411267 18.425057,5.662285 18.470816,5.684798 18.515418,5.709525 19.012751,5.985251 19.05609,6.012136 19.539331,6.311913 20.007274,6.635088 20.04924,6.66407 20.500791,7.009778 20.541287,7.040781 20.580213,7.073728 21.014272,7.441108 21.467016,7.864135 21.862805,8.272301 21.898299,8.308905 22.273562,8.735993 22.307215,8.774293 22.338951,8.814197 22.69283,9.259162 22.737504,9.321368 23.054222,9.762377 23.3628,10.239972 23.390472,10.282803 23.675299,10.77498 23.700844,10.81912 23.724197,10.864457 23.984612,11.370012 24.019011,11.445692 24.019012,11.445692 24.24104,11.934155 24.463095,12.494331 24.469398,12.510231 24.652798,13.048528 24.669245,13.096801 24.683309,13.14582 24.840141,13.692421 24.851785,13.742066 24.981635,14.295649 25.0841,14.854895 25.093289,14.905047 25.168211,15.468617 25.17493,15.519159 25.179163,15.569967 25.226372,16.136532 25.228105,16.187489 25.247446,16.755714 25.238754,17.324261 25.237974,17.375249 25.20139,17.942739 25.19811,17.993631 25.192341,18.044306 25.128015,18.60935 25.119772,18.659679 25.02784,19.220893 24.908451,19.776896 24.897745,19.826758 24.751255,20.37622 24.738118,20.425495 24.722581,20.474066 24.549346,21.015669 24.531443,21.063418 24.331826,21.595851 24.10618,22.117783 24.085943,22.16459 23.834926,22.674823 23.812413,22.720582 23.801936,22.739479 23.51196,23.262519 23.485075,23.305856 23.185295,23.789096 22.862123,24.257044 22.833142,24.299009 22.487431,24.75056 22.456427,24.791056 22.42348,24.829981 22.056096,25.264045 22.021282,25.301305 21.633075,25.716782 21.224908,26.112573 21.188304,26.148067 20.761224,26.523341 20.722923,26.556996 20.683022,26.588735 20.238072,26.942654 20.196659,26.972404 19.734893,27.304134 19.257356,27.612841 19.21453,27.640525 18.722411,27.9255 18.678277,27.951056 18.632943,27.97442 18.127451,28.234951 17.563326,28.491439 17.034635,28.700952 16.987224,28.719741 16.448879,28.903023 16.4006,28.919459 16.351575,28.933511 15.804911,29.090194 15.755262,29.101827 15.201621,29.231546 14.642344,29.333933 14.592187,29.343116 14.028601,29.417993 13.978057,29.42471 13.927248,29.428941 13.360677,29.47614 13.309719,29.477874 12.741497,29.497214 12.172947,29.488519 12.12196,29.48774 11.503566,29.447876 11.452905,29.442109 10.88786,29.377781 10.837531,29.369538 10.276315,29.277605 9.720316,29.158216 9.670453,29.147509 9.12099,29.001022 9.071714,28.987884 9.023142,28.972347 8.481534,28.799112 8.433785,28.781209 7.901357,28.581592 7.379426,28.355939 7.332619,28.335703 6.822386,28.084692 6.776628,28.06218 6.732027,28.037452 6.234689,27.761725 6.191353,27.734842 5.708112,27.435062 5.240167,27.111887 5.198202,27.082906 4.74665,26.7372 4.706155,26.706196 4.667227,26.673247 4.233165,26.305862 4.195905,26.271048 3.780429,25.882843 3.384638,25.474676 3.349143,25.438071 2.973869,25.010989 2.940215,24.972689 2.9362,24.967641 2.554557,24.487838 2.524808,24.446426 2.193076,23.984661 1.884368,23.507121 1.856684,23.464296 1.571709,22.972179 1.546154,22.928046 1.522789,22.882712 1.262256,22.377207 1.241148,22.330781 1.005771,21.813091 0.796259,21.284401 0.77747,21.236989 0.594187,20.698641 0.577751,20.650363 0.5637,20.60134 0.407016,20.054675 0.395382,20.005025 0.265663,19.451385 0.163276,18.892109 0.154095,18.841954 0.079216,18.278367 0.072502,18.227826 0.068268,18.177015 0.021072,17.610445 0.019337,17.559487 0,16.991263 0.008691,16.422716 0.009471,16.371728 0.046051,15.804238 0.049332,15.753345 0.050063,15.746927 0.119428,15.137627 0.127671,15.087297 0.219603,14.526081 0.338993,13.970082 0.349699,13.92022 0.509329,13.321475 0.524863,13.27291 0.698095,12.731302 0.715998,12.683553 0.915618,12.151124 1.141265,11.629194 1.1615,11.582388 1.412517,11.072154 1.43503,11.026395 1.459756,10.981795 1.735484,10.484459 1.762368,10.441122 2.062149,9.957879 2.38532,9.489934 2.414302,9.447969 2.760012,8.996416 2.791014,8.955922 2.823961,8.916995 3.191348,8.482933 3.226163,8.445672 3.614367,8.030197 4.022535,7.634404 4.059139,7.598909 4.486225,7.223651 4.524526,7.189997 4.564431,7.158261 5.009396,6.80438 5.05081,6.774639 5.512611,6.442987 5.990207,6.13441 6.033036,6.106738 6.525217,5.821909 6.569356,5.796365 6.614694,5.773012 7.120245,5.512602 7.166673,5.491498 7.684388,5.256173 8.213053,5.046608 8.260465,5.027813 8.79876,4.844412 8.847034,4.827965 8.896054,4.813899 9.442655,4.657072 9.530805,4.636395 10.045885,4.515574 10.605127,4.413109 10.655281,4.403919 11.218851,4.329002 11.269392,4.322283 11.320202,4.318048 11.886765,4.270838 11.937722,4.269104 12.505947,4.249765 13.074496,4.258458 13.125482,4.259237 13.692974,4.29582 "
       slic3r:type="contour" />
  </g>
  <g
     id="layer1" />
  <g
     id="layer2">
    <rect
       y="3.4996693"
       x="0.24997638"
       height="12.873784"
       width="13.373736"
       id="rect5135"
       style="fill:#d381a2;fill-opacity:1" />
  </g>
</svg>
