<?xml version="1.0" encoding="UTF-8" standalone="no"?>
<svg
   xmlns:slic3r="http://slic3r.org/namespaces/slic3r"
   xmlns:dc="http://purl.org/dc/elements/1.1/"
   xmlns:cc="http://creativecommons.org/ns#"
   xmlns:rdf="http://www.w3.org/1999/02/22-rdf-syntax-ns#"
   xmlns:svg="http://www.w3.org/2000/svg"
   xmlns="http://www.w3.org/2000/svg"
   id="svg14173"
   version="1.1"
   viewBox="0 0 210 297"
   height="297mm"
   width="210mm">
  <defs
     id="defs14167" />
  <metadata
     id="metadata14170">
    <rdf:RDF>
      <cc:Work
         rdf:about="">
        <dc:format>image/svg+xml</dc:format>
        <dc:type
           rdf:resource="http://purl.org/dc/dcmitype/StillImage" />
        <dc:title></dc:title>
      </cc:Work>
    </rdf:RDF>
  </metadata>
  <g
     id="layer1">
    <path
       id="path13518"
       d="m 21.542199,94.286192 0.727093,11.350718"
       style="fill:none;stroke:#000000;stroke-width:0.03656048;stroke-linecap:butt;stroke-linejoin:miter;stroke-miterlimit:4;stroke-dasharray:none;stroke-opacity:1" />
    <path
       id="path13518-3"
       d="m 22.209256,94.286192 0.727093,11.350718"
       style="fill:none;stroke:#000000;stroke-width:0.03656048;stroke-linecap:butt;stroke-linejoin:miter;stroke-miterlimit:4;stroke-dasharray:none;stroke-opacity:1" />
    <path
       id="path13518-6"
       d="m 22.876313,94.286192 0.727093,11.350718"
       style="fill:none;stroke:#000000;stroke-width:0.03656048;stroke-linecap:butt;stroke-linejoin:miter;stroke-miterlimit:4;stroke-dasharray:none;stroke-opacity:1" />
    <path
       id="path13518-7"
       d="m 23.321019,94.286192 0.727093,11.350718"
       style="fill:none;stroke:#000000;stroke-width:0.03656048;stroke-linecap:butt;stroke-linejoin:miter;stroke-miterlimit:4;stroke-dasharray:none;stroke-opacity:1" />
    <path
       id="path13518-5"
       d="m 23.765724,94.286192 0.727093,11.350718"
       style="fill:none;stroke:#000000;stroke-width:0.03656048;stroke-linecap:butt;stroke-linejoin:miter;stroke-miterlimit:4;stroke-dasharray:none;stroke-opacity:1" />
    <path
       id="path13518-35"
       d="m 24.210429,94.286192 0.727093,11.350718"
       style="fill:none;stroke:#000000;stroke-width:0.03656048;stroke-linecap:butt;stroke-linejoin:miter;stroke-miterlimit:4;stroke-dasharray:none;stroke-opacity:1" />
    <path
       id="path13518-62"
       d="m 24.655134,94.286192 0.727093,11.350718"
       style="fill:none;stroke:#000000;stroke-width:0.03656048;stroke-linecap:butt;stroke-linejoin:miter;stroke-miterlimit:4;stroke-dasharray:none;stroke-opacity:1" />
    <path
       id="path13518-9"
       d="m 25.099839,94.286192 0.727093,11.350718"
       style="fill:none;stroke:#000000;stroke-width:0.03656048;stroke-linecap:butt;stroke-linejoin:miter;stroke-miterlimit:4;stroke-dasharray:none;stroke-opacity:1" />
    <path
       id="path13518-1"
       d="m 25.989249,94.286192 0.727092,11.350718"
       style="fill:none;stroke:#000000;stroke-width:0.03656048;stroke-linecap:butt;stroke-linejoin:miter;stroke-miterlimit:4;stroke-dasharray:none;stroke-opacity:1" />
    <path
       id="path13518-2"
       d="m 26.433954,94.286192 0.727093,11.350718"
       style="fill:none;stroke:#000000;stroke-width:0.03656048;stroke-linecap:butt;stroke-linejoin:miter;stroke-miterlimit:4;stroke-dasharray:none;stroke-opacity:1" />
    <path
       id="path13518-70"
       d="m 25.544544,94.286192 0.727093,11.350718"
       style="fill:none;stroke:#000000;stroke-width:0.03656048;stroke-linecap:butt;stroke-linejoin:miter;stroke-miterlimit:4;stroke-dasharray:none;stroke-opacity:1" />
    <path
       id="path13518-93"
       d="m 27.323364,94.286192 0.727093,11.350718"
       style="fill:none;stroke:#000000;stroke-width:0.03656048;stroke-linecap:butt;stroke-linejoin:miter;stroke-miterlimit:4;stroke-dasharray:none;stroke-opacity:1" />
    <path
       id="path13518-60"
       d="m 27.768069,94.286192 0.727093,11.350718"
       style="fill:none;stroke:#000000;stroke-width:0.03656048;stroke-linecap:butt;stroke-linejoin:miter;stroke-miterlimit:4;stroke-dasharray:none;stroke-opacity:1" />
    <path
       id="path13518-626"
       d="m 28.212774,94.286192 0.727093,11.350718"
       style="fill:none;stroke:#000000;stroke-width:0.03656048;stroke-linecap:butt;stroke-linejoin:miter;stroke-miterlimit:4;stroke-dasharray:none;stroke-opacity:1" />
    <path
       id="path13518-18"
       d="m 28.657479,94.286192 0.727093,11.350718"
       style="fill:none;stroke:#000000;stroke-width:0.03656048;stroke-linecap:butt;stroke-linejoin:miter;stroke-miterlimit:4;stroke-dasharray:none;stroke-opacity:1" />
    <path
       id="path13518-79"
       d="m 29.102184,94.286192 0.727093,11.350718"
       style="fill:none;stroke:#000000;stroke-width:0.03656048;stroke-linecap:butt;stroke-linejoin:miter;stroke-miterlimit:4;stroke-dasharray:none;stroke-opacity:1" />
    <path
       id="path13518-20"
       d="m 29.324536,94.286192 0.727093,11.350718"
       style="fill:none;stroke:#000000;stroke-width:0.03656048;stroke-linecap:butt;stroke-linejoin:miter;stroke-miterlimit:4;stroke-dasharray:none;stroke-opacity:1" />
    <path
       id="path13518-23"
       d="m 29.546889,94.286192 0.727093,11.350718"
       style="fill:none;stroke:#000000;stroke-width:0.03656048;stroke-linecap:butt;stroke-linejoin:miter;stroke-miterlimit:4;stroke-dasharray:none;stroke-opacity:1" />
    <path
       id="path13518-75"
       d="m 29.769241,94.286192 0.727093,11.350718"
       style="fill:none;stroke:#000000;stroke-width:0.03656048;stroke-linecap:butt;stroke-linejoin:miter;stroke-miterlimit:4;stroke-dasharray:none;stroke-opacity:1" />
    <path
       id="path13518-92"
       d="m 29.991594,94.286192 0.727093,11.350718"
       style="fill:none;stroke:#000000;stroke-width:0.03656048;stroke-linecap:butt;stroke-linejoin:miter;stroke-miterlimit:4;stroke-dasharray:none;stroke-opacity:1" />
    <path
       id="path13518-28"
       d="m 30.213946,94.286192 0.727093,11.350718"
       style="fill:none;stroke:#000000;stroke-width:0.03656048;stroke-linecap:butt;stroke-linejoin:miter;stroke-miterlimit:4;stroke-dasharray:none;stroke-opacity:1" />
    <path
       id="path13518-97"
       d="m 26.878659,94.286192 0.727093,11.350718"
       style="fill:none;stroke:#000000;stroke-width:0.03656048;stroke-linecap:butt;stroke-linejoin:miter;stroke-miterlimit:4;stroke-dasharray:none;stroke-opacity:1" />
    <path
       id="path13518-36"
       d="m 30.436299,94.286192 0.727093,11.350718"
       style="fill:none;stroke:#000000;stroke-width:0.03656048;stroke-linecap:butt;stroke-linejoin:miter;stroke-miterlimit:4;stroke-dasharray:none;stroke-opacity:1" />
    <path
       id="path13518-3-1"
       d="m 30.658651,94.286192 0.727093,11.350718"
       style="fill:none;stroke:#000000;stroke-width:0.03656048;stroke-linecap:butt;stroke-linejoin:miter;stroke-miterlimit:4;stroke-dasharray:none;stroke-opacity:1" />
    <path
       id="path13518-6-2"
       d="m 30.881004,94.286192 0.727093,11.350718"
       style="fill:none;stroke:#000000;stroke-width:0.03656048;stroke-linecap:butt;stroke-linejoin:miter;stroke-miterlimit:4;stroke-dasharray:none;stroke-opacity:1" />
    <path
       id="path13518-7-9"
       d="m 31.103356,94.286192 0.727093,11.350718"
       style="fill:none;stroke:#000000;stroke-width:0.03656048;stroke-linecap:butt;stroke-linejoin:miter;stroke-miterlimit:4;stroke-dasharray:none;stroke-opacity:1" />
    <path
       id="path13518-5-3"
       d="m 31.548061,94.286192 0.727093,11.350718"
       style="fill:none;stroke:#000000;stroke-width:0.03656048;stroke-linecap:butt;stroke-linejoin:miter;stroke-miterlimit:4;stroke-dasharray:none;stroke-opacity:1" />
    <path
       id="path13518-35-1"
       d="m 31.992766,94.286192 0.727093,11.350718"
       style="fill:none;stroke:#000000;stroke-width:0.03656048;stroke-linecap:butt;stroke-linejoin:miter;stroke-miterlimit:4;stroke-dasharray:none;stroke-opacity:1" />
    <path
       id="path13518-62-9"
       d="m 32.437471,94.286192 0.727094,11.350718"
       style="fill:none;stroke:#000000;stroke-width:0.03656048;stroke-linecap:butt;stroke-linejoin:miter;stroke-miterlimit:4;stroke-dasharray:none;stroke-opacity:1" />
    <path
       id="path13518-9-4"
       d="M 32.882178,94.286192 33.60927,105.63691"
       style="fill:none;stroke:#000000;stroke-width:0.03656048;stroke-linecap:butt;stroke-linejoin:miter;stroke-miterlimit:4;stroke-dasharray:none;stroke-opacity:1" />
    <path
       id="path13518-1-7"
       d="m 33.771588,94.286192 0.727093,11.350718"
       style="fill:none;stroke:#000000;stroke-width:0.03656048;stroke-linecap:butt;stroke-linejoin:miter;stroke-miterlimit:4;stroke-dasharray:none;stroke-opacity:1" />
    <path
       id="path13518-2-8"
       d="m 34.216293,94.286192 0.727093,11.350718"
       style="fill:none;stroke:#000000;stroke-width:0.03656048;stroke-linecap:butt;stroke-linejoin:miter;stroke-miterlimit:4;stroke-dasharray:none;stroke-opacity:1" />
    <path
       id="path13518-70-4"
       d="m 33.326883,94.286192 0.727093,11.350718"
       style="fill:none;stroke:#000000;stroke-width:0.03656048;stroke-linecap:butt;stroke-linejoin:miter;stroke-miterlimit:4;stroke-dasharray:none;stroke-opacity:1" />
    <path
       id="path13518-93-5"
       d="m 35.105702,94.286192 0.727093,11.350718"
       style="fill:none;stroke:#000000;stroke-width:0.03656048;stroke-linecap:butt;stroke-linejoin:miter;stroke-miterlimit:4;stroke-dasharray:none;stroke-opacity:1" />
    <path
       id="path13518-60-0"
       d="M 35.550407,94.286192 36.2775,105.63691"
       style="fill:none;stroke:#000000;stroke-width:0.03656048;stroke-linecap:butt;stroke-linejoin:miter;stroke-miterlimit:4;stroke-dasharray:none;stroke-opacity:1" />
    <path
       id="path13518-626-3"
       d="m 35.995112,94.286192 0.727093,11.350718"
       style="fill:none;stroke:#000000;stroke-width:0.03656048;stroke-linecap:butt;stroke-linejoin:miter;stroke-miterlimit:4;stroke-dasharray:none;stroke-opacity:1" />
    <path
       id="path13518-18-6"
       d="m 36.439818,94.286192 0.727093,11.350718"
       style="fill:none;stroke:#000000;stroke-width:0.03656048;stroke-linecap:butt;stroke-linejoin:miter;stroke-miterlimit:4;stroke-dasharray:none;stroke-opacity:1" />
    <path
       id="path13518-79-1"
       d="m 36.884523,94.286192 0.727093,11.350718"
       style="fill:none;stroke:#000000;stroke-width:0.03656048;stroke-linecap:butt;stroke-linejoin:miter;stroke-miterlimit:4;stroke-dasharray:none;stroke-opacity:1" />
    <path
       id="path13518-20-0"
       d="m 37.329228,94.286192 0.727093,11.350718"
       style="fill:none;stroke:#000000;stroke-width:0.03656048;stroke-linecap:butt;stroke-linejoin:miter;stroke-miterlimit:4;stroke-dasharray:none;stroke-opacity:1" />
    <path
       id="path13518-23-6"
       d="m 37.773933,94.286192 0.727093,11.350718"
       style="fill:none;stroke:#000000;stroke-width:0.03656048;stroke-linecap:butt;stroke-linejoin:miter;stroke-miterlimit:4;stroke-dasharray:none;stroke-opacity:1" />
    <path
       id="path13518-75-3"
       d="m 38.218639,94.286192 0.727092,11.350718"
       style="fill:none;stroke:#000000;stroke-width:0.03656048;stroke-linecap:butt;stroke-linejoin:miter;stroke-miterlimit:4;stroke-dasharray:none;stroke-opacity:1" />
    <path
       id="path13518-92-2"
       d="m 38.663342,94.286192 0.727093,11.350718"
       style="fill:none;stroke:#000000;stroke-width:0.03656048;stroke-linecap:butt;stroke-linejoin:miter;stroke-miterlimit:4;stroke-dasharray:none;stroke-opacity:1" />
    <path
       id="path13518-28-0"
       d="M 39.108047,94.286192 39.83514,105.63691"
       style="fill:none;stroke:#000000;stroke-width:0.03656048;stroke-linecap:butt;stroke-linejoin:miter;stroke-miterlimit:4;stroke-dasharray:none;stroke-opacity:1" />
    <path
       id="path13518-97-6"
       d="m 34.660999,94.286192 0.727092,11.350718"
       style="fill:none;stroke:#000000;stroke-width:0.03656048;stroke-linecap:butt;stroke-linejoin:miter;stroke-miterlimit:4;stroke-dasharray:none;stroke-opacity:1" />
    <path
       id="path13518-15"
       d="m 31.325709,94.286192 0.727093,11.350718"
       style="fill:none;stroke:#000000;stroke-width:0.03656048;stroke-linecap:butt;stroke-linejoin:miter;stroke-miterlimit:4;stroke-dasharray:none;stroke-opacity:1" />
    <path
       id="path13518-3-5"
       d="m 31.770414,94.286192 0.727093,11.350718"
       style="fill:none;stroke:#000000;stroke-width:0.03656048;stroke-linecap:butt;stroke-linejoin:miter;stroke-miterlimit:4;stroke-dasharray:none;stroke-opacity:1" />
    <path
       id="path13518-6-4"
       d="m 32.215119,94.286192 0.727093,11.350718"
       style="fill:none;stroke:#000000;stroke-width:0.03656048;stroke-linecap:butt;stroke-linejoin:miter;stroke-miterlimit:4;stroke-dasharray:none;stroke-opacity:1" />
    <path
       id="path13518-7-7"
       d="m 32.659825,94.286192 0.727094,11.350718"
       style="fill:none;stroke:#000000;stroke-width:0.03656048;stroke-linecap:butt;stroke-linejoin:miter;stroke-miterlimit:4;stroke-dasharray:none;stroke-opacity:1" />
    <path
       id="path13518-5-6"
       d="m 33.10453,94.286192 0.727092,11.350718"
       style="fill:none;stroke:#000000;stroke-width:0.03656048;stroke-linecap:butt;stroke-linejoin:miter;stroke-miterlimit:4;stroke-dasharray:none;stroke-opacity:1" />
    <path
       id="path13518-35-5"
       d="m 33.549235,94.286192 0.727092,11.350718"
       style="fill:none;stroke:#000000;stroke-width:0.03656048;stroke-linecap:butt;stroke-linejoin:miter;stroke-miterlimit:4;stroke-dasharray:none;stroke-opacity:1" />
    <path
       id="path13518-62-6"
       d="m 33.99394,94.286192 0.727093,11.350718"
       style="fill:none;stroke:#000000;stroke-width:0.03656048;stroke-linecap:butt;stroke-linejoin:miter;stroke-miterlimit:4;stroke-dasharray:none;stroke-opacity:1" />
    <path
       id="path13518-9-9"
       d="m 34.438645,94.286192 0.727093,11.350718"
       style="fill:none;stroke:#000000;stroke-width:0.03656048;stroke-linecap:butt;stroke-linejoin:miter;stroke-miterlimit:4;stroke-dasharray:none;stroke-opacity:1" />
    <path
       id="path13518-1-3"
       d="m 35.328056,94.286192 0.727092,11.350718"
       style="fill:none;stroke:#000000;stroke-width:0.03656048;stroke-linecap:butt;stroke-linejoin:miter;stroke-miterlimit:4;stroke-dasharray:none;stroke-opacity:1" />
    <path
       id="path13518-2-7"
       d="m 35.772761,94.286192 0.727093,11.350718"
       style="fill:none;stroke:#000000;stroke-width:0.03656048;stroke-linecap:butt;stroke-linejoin:miter;stroke-miterlimit:4;stroke-dasharray:none;stroke-opacity:1" />
    <path
       id="path13518-70-45"
       d="m 34.88335,94.286192 0.727093,11.350718"
       style="fill:none;stroke:#000000;stroke-width:0.03656048;stroke-linecap:butt;stroke-linejoin:miter;stroke-miterlimit:4;stroke-dasharray:none;stroke-opacity:1" />
    <path
       id="path13518-93-2"
       d="m 36.662171,94.286192 0.727093,11.350718"
       style="fill:none;stroke:#000000;stroke-width:0.03656048;stroke-linecap:butt;stroke-linejoin:miter;stroke-miterlimit:4;stroke-dasharray:none;stroke-opacity:1" />
    <path
       id="path13518-60-5"
       d="m 37.106875,94.286192 0.727092,11.350718"
       style="fill:none;stroke:#000000;stroke-width:0.03656048;stroke-linecap:butt;stroke-linejoin:miter;stroke-miterlimit:4;stroke-dasharray:none;stroke-opacity:1" />
    <path
       id="path13518-626-4"
       d="m 37.55158,94.286192 0.727093,11.350718"
       style="fill:none;stroke:#000000;stroke-width:0.03656048;stroke-linecap:butt;stroke-linejoin:miter;stroke-miterlimit:4;stroke-dasharray:none;stroke-opacity:1" />
    <path
       id="path13518-18-7"
       d="m 37.996285,94.286192 0.727093,11.350718"
       style="fill:none;stroke:#000000;stroke-width:0.03656048;stroke-linecap:butt;stroke-linejoin:miter;stroke-miterlimit:4;stroke-dasharray:none;stroke-opacity:1" />
    <path
       id="path13518-79-4"
       d="m 38.44099,94.286192 0.727093,11.350718"
       style="fill:none;stroke:#000000;stroke-width:0.03656048;stroke-linecap:butt;stroke-linejoin:miter;stroke-miterlimit:4;stroke-dasharray:none;stroke-opacity:1" />
    <path
       id="path13518-20-4"
       d="m 38.885695,94.286192 0.727093,11.350718"
       style="fill:none;stroke:#000000;stroke-width:0.03656048;stroke-linecap:butt;stroke-linejoin:miter;stroke-miterlimit:4;stroke-dasharray:none;stroke-opacity:1" />
    <path
       id="path13518-23-3"
       d="m 39.330401,94.286192 0.727093,11.350718"
       style="fill:none;stroke:#000000;stroke-width:0.03656048;stroke-linecap:butt;stroke-linejoin:miter;stroke-miterlimit:4;stroke-dasharray:none;stroke-opacity:1" />
    <path
       id="path13518-75-0"
       d="m 39.552752,94.286192 0.727093,11.350718"
       style="fill:none;stroke:#000000;stroke-width:0.03656048;stroke-linecap:butt;stroke-linejoin:miter;stroke-miterlimit:4;stroke-dasharray:none;stroke-opacity:1" />
    <path
       id="path13518-92-7"
       d="m 39.775106,94.286192 0.727093,11.350718"
       style="fill:none;stroke:#000000;stroke-width:0.03656048;stroke-linecap:butt;stroke-linejoin:miter;stroke-miterlimit:4;stroke-dasharray:none;stroke-opacity:1" />
    <path
       id="path13518-28-8"
       d="m 39.997458,94.286192 0.727093,11.350718"
       style="fill:none;stroke:#000000;stroke-width:0.03656048;stroke-linecap:butt;stroke-linejoin:miter;stroke-miterlimit:4;stroke-dasharray:none;stroke-opacity:1" />
    <path
       id="path13518-97-68"
       d="m 36.217466,94.286192 0.727093,11.350718"
       style="fill:none;stroke:#000000;stroke-width:0.03656048;stroke-linecap:butt;stroke-linejoin:miter;stroke-miterlimit:4;stroke-dasharray:none;stroke-opacity:1" />
    <path
       id="path13518-8"
       d="m 18.873969,94.286192 0.727093,11.350718"
       style="fill:none;stroke:#000000;stroke-width:0.03656048;stroke-linecap:butt;stroke-linejoin:miter;stroke-miterlimit:4;stroke-dasharray:none;stroke-opacity:1" />
    <path
       id="path13518-3-4"
       d="m 19.318674,94.286192 0.727093,11.350718"
       style="fill:none;stroke:#000000;stroke-width:0.03656048;stroke-linecap:butt;stroke-linejoin:miter;stroke-miterlimit:4;stroke-dasharray:none;stroke-opacity:1" />
    <path
       id="path13518-6-3"
       d="m 19.763379,94.286192 0.727093,11.350718"
       style="fill:none;stroke:#000000;stroke-width:0.03656048;stroke-linecap:butt;stroke-linejoin:miter;stroke-miterlimit:4;stroke-dasharray:none;stroke-opacity:1" />
    <path
       id="path13518-7-1"
       d="m 20.208084,94.286192 0.727093,11.350718"
       style="fill:none;stroke:#000000;stroke-width:0.03656048;stroke-linecap:butt;stroke-linejoin:miter;stroke-miterlimit:4;stroke-dasharray:none;stroke-opacity:1" />
    <path
       id="path13518-5-4"
       d="m 20.652789,94.286192 0.727093,11.350718"
       style="fill:none;stroke:#000000;stroke-width:0.03656048;stroke-linecap:butt;stroke-linejoin:miter;stroke-miterlimit:4;stroke-dasharray:none;stroke-opacity:1" />
    <path
       id="path13518-35-9"
       d="m 21.097494,94.286192 0.727093,11.350718"
       style="fill:none;stroke:#000000;stroke-width:0.03656048;stroke-linecap:butt;stroke-linejoin:miter;stroke-miterlimit:4;stroke-dasharray:none;stroke-opacity:1" />
    <path
       id="path13518-62-2"
       d="m 21.764551,94.286192 0.727093,11.350718"
       style="fill:none;stroke:#000000;stroke-width:0.03656048;stroke-linecap:butt;stroke-linejoin:miter;stroke-miterlimit:4;stroke-dasharray:none;stroke-opacity:1" />
    <path
       id="path13518-9-0"
       d="m 22.431608,94.286192 0.727093,11.350718"
       style="fill:none;stroke:#000000;stroke-width:0.03656048;stroke-linecap:butt;stroke-linejoin:miter;stroke-miterlimit:4;stroke-dasharray:none;stroke-opacity:1" />
    <path
       id="path13518-1-6"
       d="m 23.543371,94.286192 0.727093,11.350718"
       style="fill:none;stroke:#000000;stroke-width:0.03656048;stroke-linecap:butt;stroke-linejoin:miter;stroke-miterlimit:4;stroke-dasharray:none;stroke-opacity:1" />
    <path
       id="path13518-2-89"
       d="M 23.988076,94.286192 24.71517,105.63691"
       style="fill:none;stroke:#000000;stroke-width:0.03656048;stroke-linecap:butt;stroke-linejoin:miter;stroke-miterlimit:4;stroke-dasharray:none;stroke-opacity:1" />
    <path
       id="path13518-70-2"
       d="m 23.098666,94.286192 0.727093,11.350718"
       style="fill:none;stroke:#000000;stroke-width:0.03656048;stroke-linecap:butt;stroke-linejoin:miter;stroke-miterlimit:4;stroke-dasharray:none;stroke-opacity:1" />
    <path
       id="path13518-93-6"
       d="m 24.877486,94.286192 0.727093,11.350718"
       style="fill:none;stroke:#000000;stroke-width:0.03656048;stroke-linecap:butt;stroke-linejoin:miter;stroke-miterlimit:4;stroke-dasharray:none;stroke-opacity:1" />
    <path
       id="path13518-60-6"
       d="m 25.322191,94.286192 0.727093,11.350718"
       style="fill:none;stroke:#000000;stroke-width:0.03656048;stroke-linecap:butt;stroke-linejoin:miter;stroke-miterlimit:4;stroke-dasharray:none;stroke-opacity:1" />
    <path
       id="path13518-626-49"
       d="m 25.766896,94.286192 0.727093,11.350718"
       style="fill:none;stroke:#000000;stroke-width:0.03656048;stroke-linecap:butt;stroke-linejoin:miter;stroke-miterlimit:4;stroke-dasharray:none;stroke-opacity:1" />
    <path
       id="path13518-18-5"
       d="m 26.211601,94.286192 0.727093,11.350718"
       style="fill:none;stroke:#000000;stroke-width:0.03656048;stroke-linecap:butt;stroke-linejoin:miter;stroke-miterlimit:4;stroke-dasharray:none;stroke-opacity:1" />
    <path
       id="path13518-79-0"
       d="m 26.656306,94.286192 0.727093,11.350718"
       style="fill:none;stroke:#000000;stroke-width:0.03656048;stroke-linecap:butt;stroke-linejoin:miter;stroke-miterlimit:4;stroke-dasharray:none;stroke-opacity:1" />
    <path
       id="path13518-20-48"
       d="m 27.101011,94.286192 0.727093,11.350718"
       style="fill:none;stroke:#000000;stroke-width:0.03656048;stroke-linecap:butt;stroke-linejoin:miter;stroke-miterlimit:4;stroke-dasharray:none;stroke-opacity:1" />
    <path
       id="path13518-23-7"
       d="m 27.545716,94.286192 0.727093,11.350718"
       style="fill:none;stroke:#000000;stroke-width:0.03656048;stroke-linecap:butt;stroke-linejoin:miter;stroke-miterlimit:4;stroke-dasharray:none;stroke-opacity:1" />
    <path
       id="path13518-75-1"
       d="m 27.990421,94.286192 0.727093,11.350718"
       style="fill:none;stroke:#000000;stroke-width:0.03656048;stroke-linecap:butt;stroke-linejoin:miter;stroke-miterlimit:4;stroke-dasharray:none;stroke-opacity:1" />
    <path
       id="path13518-92-72"
       d="m 28.435126,94.286192 0.727093,11.350718"
       style="fill:none;stroke:#000000;stroke-width:0.03656048;stroke-linecap:butt;stroke-linejoin:miter;stroke-miterlimit:4;stroke-dasharray:none;stroke-opacity:1" />
    <path
       id="path13518-28-7"
       d="m 28.879831,94.286192 0.727093,11.350718"
       style="fill:none;stroke:#000000;stroke-width:0.03656048;stroke-linecap:butt;stroke-linejoin:miter;stroke-miterlimit:4;stroke-dasharray:none;stroke-opacity:1" />
    <path
       id="path13518-97-2"
       d="m 24.432781,94.286192 0.727093,11.350718"
       style="fill:none;stroke:#000000;stroke-width:0.03656048;stroke-linecap:butt;stroke-linejoin:miter;stroke-miterlimit:4;stroke-dasharray:none;stroke-opacity:1" />
    <path
       id="path13518-26"
       d="M 15.761037,94.286192 16.48813,105.63691"
       style="fill:none;stroke:#000000;stroke-width:0.03656048;stroke-linecap:butt;stroke-linejoin:miter;stroke-miterlimit:4;stroke-dasharray:none;stroke-opacity:1" />
    <path
       id="path13518-3-10"
       d="m 15.983389,94.286192 0.727093,11.350718"
       style="fill:none;stroke:#000000;stroke-width:0.03656048;stroke-linecap:butt;stroke-linejoin:miter;stroke-miterlimit:4;stroke-dasharray:none;stroke-opacity:1" />
    <path
       id="path13518-6-6"
       d="m 16.205741,94.286192 0.727093,11.350718"
       style="fill:none;stroke:#000000;stroke-width:0.03656048;stroke-linecap:butt;stroke-linejoin:miter;stroke-miterlimit:4;stroke-dasharray:none;stroke-opacity:1" />
    <path
       id="path13518-7-15"
       d="m 16.428094,94.286192 0.727092,11.350718"
       style="fill:none;stroke:#000000;stroke-width:0.03656048;stroke-linecap:butt;stroke-linejoin:miter;stroke-miterlimit:4;stroke-dasharray:none;stroke-opacity:1" />
    <path
       id="path13518-5-9"
       d="m 16.650446,94.286192 0.727093,11.350718"
       style="fill:none;stroke:#000000;stroke-width:0.03656048;stroke-linecap:butt;stroke-linejoin:miter;stroke-miterlimit:4;stroke-dasharray:none;stroke-opacity:1" />
    <path
       id="path13518-35-4"
       d="m 16.872798,94.286192 0.727093,11.350718"
       style="fill:none;stroke:#000000;stroke-width:0.03656048;stroke-linecap:butt;stroke-linejoin:miter;stroke-miterlimit:4;stroke-dasharray:none;stroke-opacity:1" />
    <path
       id="path13518-62-90"
       d="m 17.09515,94.286192 0.727093,11.350718"
       style="fill:none;stroke:#000000;stroke-width:0.03656048;stroke-linecap:butt;stroke-linejoin:miter;stroke-miterlimit:4;stroke-dasharray:none;stroke-opacity:1" />
    <path
       id="path13518-9-91"
       d="m 17.317503,94.286192 0.727093,11.350718"
       style="fill:none;stroke:#000000;stroke-width:0.03656048;stroke-linecap:butt;stroke-linejoin:miter;stroke-miterlimit:4;stroke-dasharray:none;stroke-opacity:1" />
    <path
       id="path13518-1-77"
       d="M 17.762207,94.286192 18.4893,105.63691"
       style="fill:none;stroke:#000000;stroke-width:0.03656048;stroke-linecap:butt;stroke-linejoin:miter;stroke-miterlimit:4;stroke-dasharray:none;stroke-opacity:1" />
    <path
       id="path13518-2-1"
       d="m 17.984559,94.286192 0.727093,11.350718"
       style="fill:none;stroke:#000000;stroke-width:0.03656048;stroke-linecap:butt;stroke-linejoin:miter;stroke-miterlimit:4;stroke-dasharray:none;stroke-opacity:1" />
    <path
       id="path13518-70-1"
       d="m 17.539855,94.286192 0.727093,11.350718"
       style="fill:none;stroke:#000000;stroke-width:0.03656048;stroke-linecap:butt;stroke-linejoin:miter;stroke-miterlimit:4;stroke-dasharray:none;stroke-opacity:1" />
    <path
       id="path13518-93-59"
       d="m 18.429264,94.286192 0.727093,11.350718"
       style="fill:none;stroke:#000000;stroke-width:0.03656048;stroke-linecap:butt;stroke-linejoin:miter;stroke-miterlimit:4;stroke-dasharray:none;stroke-opacity:1" />
    <path
       id="path13518-60-7"
       d="m 18.651616,94.286192 0.727093,11.350718"
       style="fill:none;stroke:#000000;stroke-width:0.03656048;stroke-linecap:butt;stroke-linejoin:miter;stroke-miterlimit:4;stroke-dasharray:none;stroke-opacity:1" />
    <path
       id="path13518-626-7"
       d="m 19.096321,94.286192 0.727093,11.350718"
       style="fill:none;stroke:#000000;stroke-width:0.03656048;stroke-linecap:butt;stroke-linejoin:miter;stroke-miterlimit:4;stroke-dasharray:none;stroke-opacity:1" />
    <path
       id="path13518-18-67"
       d="m 19.541026,94.286192 0.727093,11.350718"
       style="fill:none;stroke:#000000;stroke-width:0.03656048;stroke-linecap:butt;stroke-linejoin:miter;stroke-miterlimit:4;stroke-dasharray:none;stroke-opacity:1" />
    <path
       id="path13518-79-3"
       d="m 19.985731,94.286192 0.727093,11.350718"
       style="fill:none;stroke:#000000;stroke-width:0.03656048;stroke-linecap:butt;stroke-linejoin:miter;stroke-miterlimit:4;stroke-dasharray:none;stroke-opacity:1" />
    <path
       id="path13518-20-6"
       d="m 20.430436,94.286192 0.727093,11.350718"
       style="fill:none;stroke:#000000;stroke-width:0.03656048;stroke-linecap:butt;stroke-linejoin:miter;stroke-miterlimit:4;stroke-dasharray:none;stroke-opacity:1" />
    <path
       id="path13518-23-5"
       d="m 20.875141,94.286192 0.727093,11.350718"
       style="fill:none;stroke:#000000;stroke-width:0.03656048;stroke-linecap:butt;stroke-linejoin:miter;stroke-miterlimit:4;stroke-dasharray:none;stroke-opacity:1" />
    <path
       id="path13518-75-6"
       d="m 21.319846,94.286192 0.727093,11.350718"
       style="fill:none;stroke:#000000;stroke-width:0.03656048;stroke-linecap:butt;stroke-linejoin:miter;stroke-miterlimit:4;stroke-dasharray:none;stroke-opacity:1" />
    <path
       id="path13518-92-3"
       d="m 21.986904,94.286192 0.727093,11.350718"
       style="fill:none;stroke:#000000;stroke-width:0.03656048;stroke-linecap:butt;stroke-linejoin:miter;stroke-miterlimit:4;stroke-dasharray:none;stroke-opacity:1" />
    <path
       id="path13518-28-9"
       d="m 22.653961,94.286192 0.727093,11.350718"
       style="fill:none;stroke:#000000;stroke-width:0.03656048;stroke-linecap:butt;stroke-linejoin:miter;stroke-miterlimit:4;stroke-dasharray:none;stroke-opacity:1" />
    <path
       id="path13518-97-4"
       d="m 18.206912,94.286192 0.727093,11.350718"
       style="fill:none;stroke:#000000;stroke-width:0.03656048;stroke-linecap:butt;stroke-linejoin:miter;stroke-miterlimit:4;stroke-dasharray:none;stroke-opacity:1" />
  </g>
  <g
     id="layer2">
    <polygon
       transform="matrix(1.828024,0,0,1.828024,17.644227,93.24166)"
       slic3r:type="contour"
       points="8.575794,3.288625 8.548044,3.265503 8.540366,3.238632 8.541678,3.202789 8.546343,3.106621 8.567556,3.07512 8.586521,3.052628 8.657089,2.934442 8.673288,2.918539 8.71183,2.90541 8.775072,2.871161 8.804613,2.911331 8.90436,2.992187 8.893944,2.803805 8.886508,2.745658 8.871688,2.672644 8.836362,2.555575 8.833313,2.520641 8.831764,2.507717 8.827506,2.490532 8.795053,2.362497 8.788072,2.283931 8.785811,2.25104 8.84137,2.17459 8.845875,2.172945 8.849333,2.170684 8.890734,2.179909 8.941987,2.190498 8.9463,2.196355 8.996161,2.249202 9.033161,2.336226 9.038301,2.349279 9.041091,2.357539 9.064977,2.406712 9.067938,2.458636 9.07123,2.474895 9.077176,2.514107 9.087306,2.595771 9.093829,2.645494 9.101961,2.717405 9.10126,2.78087 9.102266,2.790337 9.100519,2.796548 9.093521,2.834113 9.081285,2.860496 9.05006,2.926754 9.021768,2.971177 8.993901,3.055695 8.964966,3.108157 8.949259,3.12679 8.929126,3.151885 8.796499,3.294312 8.781112,3.307665 8.768973,3.314392 8.742186,3.318835 8.634405,3.34702 "
       style="fill:#babdff;fill-opacity:0.99723499;stroke:none;stroke-width:0.1;stroke-miterlimit:4;stroke-dasharray:none;stroke-opacity:1"
       id="polygon12218" />
    <polygon
       transform="matrix(1.828024,0,0,1.828024,17.644227,93.24166)"
       slic3r:type="contour"
       points="2.887431,1.344815 2.876951,1.374678 2.872937,1.410406 2.854005,1.426827 2.812362,1.422083 2.790575,1.424065 2.770915,1.392056 2.754295,1.370112 2.768766,1.336081 2.777519,1.306463 2.792682,1.301788 2.835853,1.282689 2.840112,1.284359 2.86794,1.322344 "
       style="fill:#babdff;fill-opacity:0.99723499;stroke:none;stroke-opacity:1"
       id="polygon12220" />
    <polygon
       transform="matrix(1.828024,0,0,1.828024,17.644227,93.24166)"
       slic3r:type="contour"
       points="2.386344,1.351691 2.384297,1.258457 2.382864,1.236672 2.428161,1.183841 2.455098,1.153146 2.466753,1.149305 2.499109,1.13957 2.544168,1.132466 2.596624,1.185346 2.603213,1.190456 2.603716,1.19672 2.6072,1.214829 2.614291,1.290577 2.57855,1.338901 2.546369,1.38466 2.448695,1.415711 2.442055,1.41807 2.438786,1.414511 2.394968,1.347897 "
       style="fill:#babdff;fill-opacity:0.99723499;stroke:none;stroke-opacity:1"
       id="polygon12222" />
    <polygon
       transform="matrix(1.828024,0,0,1.828024,17.644227,93.24166)"
       slic3r:type="contour"
       points="2.118059,1.523316 2.116654,1.516569 2.113999,1.506448 2.085669,1.401573 2.097659,1.376662 2.116883,1.339016 2.139739,1.297716 2.16709,1.284751 2.202508,1.268314 2.228959,1.257427 2.275255,1.301013 2.351356,1.367083 2.317757,1.381865 2.333303,1.443496 2.304755,1.506197 2.291432,1.538787 2.286578,1.554321 2.261178,1.567596 2.196097,1.604827 2.130199,1.538099 "
       style="fill:#babdff;fill-opacity:0.99723499;stroke:none;stroke-opacity:1"
       id="polygon12224" />
    <polygon
       transform="matrix(1.828024,0,0,1.828024,17.644227,93.24166)"
       slic3r:type="contour"
       points="1.978235,1.586959 1.99033,1.591918 2.022747,1.627648 2.074272,1.681806 2.083124,1.692108 2.091712,1.699431 2.099912,1.706405 2.112994,1.725777 2.137596,1.863206 2.153129,1.890324 2.156757,1.963589 2.139319,2.025273 2.14507,2.08505 2.126777,2.164111 2.092205,2.097508 2.074719,2.080593 1.971839,2.004247 1.963717,1.990467 1.958483,1.982691 1.932091,1.942417 1.881982,1.864529 1.875152,1.853861 1.863891,1.838145 1.860484,1.778514 1.860124,1.744394 1.861477,1.701337 1.862843,1.680766 1.891162,1.631593 1.9158,1.577388 1.917071,1.575393 "
       style="fill:#babdff;fill-opacity:0.99723499;stroke:none;stroke-opacity:1"
       id="polygon12226" />
    <polygon
       transform="matrix(1.828024,0,0,1.828024,17.644227,93.24166)"
       slic3r:type="contour"
       points="2.331239,2.646348 2.259554,2.523926 2.251358,2.51521 2.245779,2.505489 2.242247,2.470323 2.271182,2.466288 2.36019,2.402067 2.375321,2.411011 2.481995,2.397573 2.534461,2.388148 2.571175,2.415743 2.627398,2.503147 2.649443,2.607869 2.652216,2.619126 2.648052,2.624655 2.621685,2.655359 2.578838,2.70593 2.483578,2.722634 2.454837,2.725378 2.418877,2.704393 "
       style="fill:#babdff;fill-opacity:0.99723499;stroke:none;stroke-opacity:1"
       id="polygon12228" />
    <polygon
       transform="matrix(1.828024,0,0,1.828024,17.967379,92.756922)"
       slic3r:type="contour"
       points="6.9736,4.661331 6.973388,4.662152 7.00294,4.706789 7.048485,4.712625 7.10552,4.720371 7.147858,4.730273 7.240684,4.748099 7.273318,4.762655 7.3768,4.830232 7.483,4.89219 7.506408,4.908875 7.583441,5.026239 7.647813,5.112316 7.673101,5.215835 7.69091,5.306266 7.697612,5.340519 7.688474,5.399097 7.660688,5.572152 7.58175,5.703231 7.549408,5.760684 7.513106,5.784175 7.4252,5.827802 7.341126,5.852717 7.261854,5.844498 7.22533,5.833891 7.189798,5.820059 7.100383,5.801369 7.039497,5.795181 6.971066,5.775797 6.894187,5.761137 6.872984,5.794954 6.871674,5.795478 6.846344,5.810229 6.796451,5.838146 6.664809,5.916922 6.659918,5.920574 6.653627,5.925677 6.476217,6.062196 6.338043,6.176243 6.29883,6.208368 6.298051,6.209011 6.297494,6.209472 6.176628,6.308518 6.025225,6.330447 6.020366,6.331192 6.010676,6.32867 5.738147,6.24675 5.41418,6.180781 5.394199,6.177429 5.374437,6.181245 5.05243,6.244382 4.785606,6.324692 4.77669,6.327273 4.772309,6.326758 4.631263,6.305285 4.521766,6.203356 4.517972,6.200199 4.511948,6.195188 4.338592,6.034069 4.166958,5.881621 4.151488,5.870532 4.132608,5.862046 4.008581,5.77563 3.953235,5.739796 3.912778,5.731179 3.900434,5.723654 3.889959,5.70289 3.832639,5.70119 3.789844,5.684921 3.756918,5.675886 3.602366,5.629963 3.575006,5.607962 3.530172,5.565696 3.437098,5.463601 3.389587,5.358453 3.340152,5.245712 3.30264,5.025709 3.3016,5.018531 3.301204,5.016522 3.30149,5.01415 3.335618,4.80657 3.366504,4.769586 3.439087,4.686449 3.468252,4.66151 3.592234,4.626925 3.624985,4.620936 3.683751,4.629793 3.724228,4.644876 3.792264,4.665229 3.826744,4.60985 3.854831,4.585852 3.908444,4.547323 3.989016,4.478081 4.120382,4.38474 4.253378,4.292703 4.420495,4.178411 4.527482,4.105693 4.58326,4.067782 4.698162,3.989094 4.770568,3.967988 4.791236,3.961501 4.798882,3.976293 4.830416,4.04287 4.84361,4.186222 4.909416,4.166839 4.911235,4.166466 4.917064,4.164846 5.114736,4.091893 5.363001,4.046362 5.384025,4.043471 5.405962,4.046826 5.650002,4.099936 5.813649,4.16756 5.849389,4.178012 5.916739,4.192742 5.927323,4.055794 5.950474,4.013199 5.968628,3.981517 5.970188,3.979153 5.974093,3.980889 6.075703,4.019514 6.2441,4.141271 6.252214,4.147408 6.262884,4.155479 6.50948,4.333544 6.642074,4.428808 6.749504,4.506726 6.753077,4.509478 6.755862,4.511303 6.885563,4.605758 6.949463,4.642019 6.970866,4.657645 "
       style="fill:#babdff;fill-opacity:0.99723499;stroke:none;stroke-opacity:1"
       id="polygon12230" />
  </g>
</svg>
