<?xml version="1.0" encoding="UTF-8" standalone="yes"?>
<!DOCTYPE svg PUBLIC "-//W3C//DTD SVG 1.0//EN" "http://www.w3.org/TR/2001/REC-SVG-20010904/DTD/svg10.dtd">
<svg width="25.248188" height="25.248188" xmlns="http://www.w3.org/2000/svg" xmlns:svg="http://www.w3.org/2000/svg" xmlns:xlink="http://www.w3.org/1999/xlink" xmlns:slic3r="http://slic3r.org/namespaces/slic3r">
  <!-- 
  Generated using Slic3r 1.3.0
  http://slic3r.org/
   -->

    <polygon slic3r:type="contour" points="17.351753,6.963903 17.552621,6.99273 17.964485,7.221239 18.121519,7.323159 18.171181,7.355391 18.348819,7.470685 19.048094,7.924538 19.294061,8.155804 19.699897,8.537386 19.965888,8.798595 20.287716,9.397505 20.665236,10.10005 20.686034,10.214782 20.735115,10.720246 20.767338,11.052073 20.59662,10.856049 20.414072,10.660672 20.10521,10.280087 19.712931,10.059095 19.458568,9.921974 18.757959,9.537414 18.552983,9.470816 18.34762,9.405863 18.025738,9.304057 17.845265,9.24654 17.836143,9.242289 17.797544,9.224578 17.805769,9.173806 17.745807,9.107112 17.337411,8.793163 17.170967,8.680355 17.110496,8.63937 17.035427,8.588491 16.655061,8.330696 16.515584,8.228795 16.398137,8.142991 16.357344,8.091801 16.327593,8.054466 16.363585,7.992403 16.445664,7.850876 16.499235,7.758506 16.643579,7.505673 16.741073,7.334905 17.030072,7.027458 17.064364,6.991824 17.122848,6.931054" style="fill: gren" />
    <polygon slic3r:type="contour" points="18.224094,10.051256 18.349447,10.059762 18.433965,10.0948 18.58053,10.156438 18.662232,10.239308 18.749666,10.325598 18.952837,10.526118 19.008286,10.581901 19.042035,10.637275 19.127805,10.792 19.260015,11.024745 19.33216,11.438328 19.377793,11.773332 19.284343,12.563347 19.279628,12.604208 19.269035,12.620118 19.225538,12.696592 18.934362,13.216866 18.537862,13.514011 18.443366,13.614898 18.323591,13.655312 17.935094,13.729444 17.541598,13.689766 17.508962,13.689943 17.48927,13.690052 17.27895,13.663282 17.230634,13.658789 16.972708,13.461681 16.92266,13.423972 16.757091,13.228063 16.444224,12.834417 16.346355,12.643657 16.113074,12.259258 16.048143,12.169667 15.969907,11.793847 15.898408,11.54135 15.979479,11.062964 16.046823,10.822255 16.193158,10.7108 16.568401,10.439132 16.680468,10.355851 17.33509,10.105642 17.336858,10.104953 17.33699,10.104903 17.33711,10.104885 17.914957,10.023782" style="fill: orange" />
    <polygon slic3r:type="contour" points="9.87739,6.551496 9.911894,6.589785 10.17562,6.891684 10.271972,7.064085 10.414464,7.319044 10.463019,7.404785 10.54378,7.547398 10.578136,7.608065 10.553628,7.641278 10.518423,7.688988 10.412117,7.767552 10.295147,7.853998 9.957746,8.082998 9.863938,8.146667 9.781613,8.202543 9.562887,8.350996 9.207226,8.628067 9.06886,8.793502 9.118248,8.80284 9.082354,8.822648 9.071119,8.82885 8.855119,8.906628 8.572497,9.008396 8.382477,9.07682 8.184704,9.148035 7.475247,9.623457 7.220965,9.79057 6.819442,10.054447 6.525663,10.475233 6.342119,10.702127 6.175392,10.918529 6.207107,10.552328 6.256736,9.979269 6.27397,9.87271 6.659273,9.075635 6.989167,8.393184 7.24035,8.134605 7.673017,7.708711 7.946785,7.439229 8.750107,6.91864 8.846378,6.856252 8.870709,6.840484 8.951254,6.788287 9.43693,6.522579 9.576951,6.508896 9.817793,6.485362" style="fill: red" />
    <polygon slic3r:type="contour" points="9.424059,9.948738 9.550414,9.971889 9.567185,9.97533 9.58813,9.986841 10.048891,10.184892 10.374039,10.325626 10.920254,10.806855 11.050065,10.913402 11.126448,11.183555 11.290836,11.774428 11.223564,12.095483 11.109149,12.705168 11.025614,12.809484 10.702852,13.240191 10.516391,13.533546 10.018976,14.010726 9.918024,14.109019 9.87221,14.157526 9.82578,14.182694 9.51833,14.3721 9.324967,14.379988 9.209794,14.369718 9.014996,14.35235 8.705636,14.358168 8.393296,14.230306 8.122846,14.099993 7.933877,13.823819 7.612252,13.3895 7.336491,12.644723 7.283044,12.476505 7.28635,12.376105 7.244662,11.996594 7.201805,11.584945 7.277605,11.164656 7.343117,10.84578 7.617296,10.45136 7.644294,10.414293 7.658865,10.39339 7.68563,10.36981 7.984198,10.126526 8.082588,10.046354 8.176056,9.960131 8.341768,9.902361 8.424515,9.875554 8.547658,9.87247 8.903254,9.853721" style="fill: blue" />

</svg>